<svg xmlns="http://www.w3.org/2000/svg" version="1.1" xmlns:xlink="http://www.w3.org/1999/xlink" width="100%" height="100%"><svg xmlns="http://www.w3.org/2000/svg" version="1.1" xmlns:xlink="http://www.w3.org/1999/xlink" width="100%" height="100%"><svg xmlns="http://www.w3.org/2000/svg" xml:space="preserve" width="100%" height="100%" version="1.1" style="shape-rendering:geometricPrecision; text-rendering:geometricPrecision; image-rendering:optimizeQuality; fill-rule:evenodd; clip-rule:evenodd" viewBox="0 0 1386.67 1053.39" xmlns:xlink="http://www.w3.org/1999/xlink">
 <defs>
  <style type="text/css">
   
    .str0 {stroke:black;stroke-width:53.33;stroke-linecap:square;stroke-miterlimit:2.61313}
    .fil0 {fill:none}
   
  </style>
 </defs>
 <g id="Layer_x0020_1">
  <metadata id="CorelCorpID_0Corel-Layer"></metadata>
  <path class="fil0 str0" d="M1093.34 626.67l200 0m-1266.67 266.67c0,177.78 266.67,177.78 266.67,0.38l0 -533.71 -177.78 0m977.78 666.67l0 -666.67 266.67 0m-755.55 -133.33l-177.78 0 0 -200m-311.11 200l177.78 0 0 -200m133.33 1000.01l0 -666.67 133.33 0c73.64,0 133.34,59.7 133.34,133.33 0,-73.64 59.7,-133.33 133.33,-133.33l133.33 0 0 666.67"></path>
 </g>
</svg></svg><style>@media (prefers-color-scheme: light) { :root { filter: none; } }
@media (prefers-color-scheme: dark) { :root { filter: none; } }
</style></svg>